<?xml version="1.0" standalone="no"?>
<!DOCTYPE svg PUBLIC "-//W3C//DTD SVG 20010904//EN"
 "http://www.w3.org/TR/2001/REC-SVG-20010904/DTD/svg10.dtd">
<svg version="1.0" xmlns="http://www.w3.org/2000/svg"
 width="275.000000pt" height="183.000000pt" viewBox="0 0 275.000000 183.000000"
 preserveAspectRatio="xMidYMid meet">

<g transform="translate(0.000000,183.000000) scale(0.100000,-0.100000)"
fill="#000000" stroke="none">
<path d="M1225 1751 c-265 -77 -431 -334 -386 -597 11 -61 58 -190 67 -181 2
2 -4 25 -12 52 -25 80 -14 207 24 289 35 74 113 163 176 200 132 77 325 74
454 -8 59 -37 131 -121 164 -192 42 -90 50 -202 19 -302 -41 -136 -150 -246
-291 -293 -18 -7 -14 -8 17 -4 107 13 244 91 318 181 53 66 90 141 110 226 77
329 -183 651 -525 647 -41 0 -102 -8 -135 -18z"/>
<path d="M1215 1497 c-117 -30 -214 -109 -263 -215 -35 -75 -42 -205 -17 -287
10 -31 21 -57 24 -59 3 -2 6 26 7 63 2 225 266 341 436 191 143 -125 115 -348
-55 -435 l-52 -27 58 5 c117 11 242 98 297 207 26 51 32 73 44 150 7 48 -13
143 -43 205 -76 155 -270 244 -436 202z"/>
<path d="M641 474 c-56 -47 -32 -103 51 -124 80 -20 113 -35 117 -55 8 -44
-77 -60 -134 -25 -29 18 -33 18 -54 4 l-22 -16 32 -24 c60 -44 154 -43 209 3
59 49 25 119 -68 142 -90 23 -97 26 -97 46 0 16 8 21 43 23 26 2 53 -3 65 -11
16 -10 28 -11 45 -4 29 13 24 26 -18 49 -53 28 -131 24 -169 -8z"/>
<path d="M910 403 c0 -115 16 -156 70 -185 67 -35 154 -15 190 44 17 27 20 50
20 136 l0 102 -30 0 -30 0 0 -98 c0 -109 -11 -136 -59 -147 -33 -7 -85 15 -95
40 -3 9 -6 59 -6 111 l0 94 -30 0 -30 0 0 -97z"/>
<path d="M1240 355 l0 -145 30 0 c30 0 30 1 30 55 l0 55 63 0 c105 0 161 44
143 114 -12 48 -58 66 -168 66 l-98 0 0 -145z m198 83 c18 -18 14 -46 -7 -58
-11 -5 -45 -10 -75 -10 l-56 0 0 40 0 40 63 0 c36 0 68 -5 75 -12z"/>
<path d="M1570 355 l0 -145 125 0 125 0 0 25 c0 25 0 25 -95 25 l-95 0 0 40 0
40 50 0 c47 0 50 2 50 25 0 23 -3 25 -50 25 -49 0 -50 1 -50 30 l0 30 95 0
c95 0 95 0 95 25 l0 25 -125 0 -125 0 0 -145z"/>
<path d="M1880 355 l0 -145 30 0 c30 0 30 1 30 55 l0 55 48 0 48 0 23 -55 c21
-51 25 -55 57 -55 19 0 34 2 34 4 0 3 -13 30 -29 60 -28 55 -28 55 -9 73 49
44 47 102 -5 134 -26 15 -51 19 -129 19 l-98 0 0 -145z m191 85 c49 -27 1 -70
-78 -70 l-53 0 0 40 0 40 56 0 c30 0 64 -5 75 -10z"/>
<path d="M593 95 c0 -22 2 -30 4 -17 2 12 2 30 0 40 -3 9 -5 -1 -4 -23z"/>
<path d="M675 118 c5 -13 2 -18 -9 -18 -10 0 -16 -8 -15 -22 0 -16 2 -18 6 -8
4 8 13 20 22 27 13 10 14 14 3 25 -11 11 -12 10 -7 -4z"/>
<path d="M703 95 c0 -22 2 -30 4 -17 2 12 2 30 0 40 -3 9 -5 -1 -4 -23z"/>
<path d="M733 95 c0 -22 2 -30 4 -17 2 12 2 30 0 40 -3 9 -5 -1 -4 -23z"/>
<path d="M773 95 c0 -22 2 -30 4 -17 2 12 2 30 0 40 -3 9 -5 -1 -4 -23z"/>
<path d="M792 95 c0 -22 2 -32 5 -22 2 9 10 17 16 17 9 0 9 2 1 8 -6 4 -14 14
-17 22 -3 8 -5 -3 -5 -25z"/>
<path d="M863 95 c0 -22 2 -30 4 -17 2 12 2 30 0 40 -3 9 -5 -1 -4 -23z"/>
<path d="M925 95 c0 -18 3 -31 8 -28 4 2 7 15 7 28 0 13 -3 26 -7 28 -5 3 -8
-10 -8 -28z"/>
<path d="M973 95 c0 -22 2 -30 4 -17 2 12 2 30 0 40 -3 9 -5 -1 -4 -23z"/>
<path d="M1046 115 c4 -8 8 -15 10 -15 2 0 4 7 4 15 0 8 -4 15 -10 15 -5 0 -7
-7 -4 -15z"/>
<path d="M1150 115 c0 -8 2 -15 4 -15 2 0 6 7 10 15 3 8 1 15 -4 15 -6 0 -10
-7 -10 -15z"/>
<path d="M1222 95 c0 -22 2 -32 5 -22 2 9 10 17 16 17 9 0 9 2 1 8 -6 4 -14
14 -17 22 -3 8 -5 -3 -5 -25z"/>
<path d="M1305 95 c0 -18 3 -31 8 -28 4 2 7 15 7 28 0 13 -3 26 -7 28 -5 3 -8
-10 -8 -28z"/>
<path d="M1333 95 c0 -22 2 -30 4 -17 2 12 2 30 0 40 -3 9 -5 -1 -4 -23z"/>
<path d="M1363 95 c0 -22 2 -30 4 -17 2 12 2 30 0 40 -3 9 -5 -1 -4 -23z"/>
<path d="M1387 123 c-9 -9 -9 -51 1 -56 4 -3 7 10 7 29 0 19 0 34 -1 34 0 0
-4 -3 -7 -7z"/>
<path d="M1450 120 c0 -5 5 -10 10 -10 6 0 10 5 10 10 0 6 -4 10 -10 10 -5 0
-10 -4 -10 -10z"/>
<path d="M1502 99 c-1 -24 4 -41 16 -50 15 -12 15 -12 5 1 -6 8 -13 31 -16 50
l-4 35 -1 -36z"/>
<path d="M1565 119 c-4 -6 -5 -12 -2 -15 2 -3 7 2 10 11 7 17 1 20 -8 4z"/>
<path d="M1613 95 c0 -22 2 -30 4 -17 2 12 2 30 0 40 -3 9 -5 -1 -4 -23z"/>
<path d="M1643 95 c0 -22 2 -30 4 -17 2 12 2 30 0 40 -3 9 -5 -1 -4 -23z"/>
<path d="M1692 95 c0 -22 2 -32 5 -22 2 9 10 17 16 17 9 0 9 2 1 8 -6 4 -14
14 -17 22 -3 8 -5 -3 -5 -25z"/>
<path d="M1763 95 c0 -22 2 -30 4 -17 2 12 2 30 0 40 -3 9 -5 -1 -4 -23z"/>
<path d="M1923 95 c0 -22 2 -30 4 -17 2 12 2 30 0 40 -3 9 -5 -1 -4 -23z"/>
<path d="M1953 90 c0 -25 2 -35 4 -22 2 12 2 32 0 45 -2 12 -4 2 -4 -23z"/>
<path d="M2033 95 c0 -22 2 -30 4 -17 2 12 2 30 0 40 -3 9 -5 -1 -4 -23z"/>
<path d="M2050 123 c0 -6 7 -16 15 -23 8 -7 15 -20 16 -29 0 -10 2 -11 6 -4 2
7 -5 25 -16 39 -12 15 -21 22 -21 17z"/>
<path d="M2126 115 c4 -8 8 -15 10 -15 2 0 4 7 4 15 0 8 -4 15 -10 15 -5 0 -7
-7 -4 -15z"/>
<path d="M1170 95 c0 -8 -7 -15 -15 -15 -8 0 -15 -4 -15 -9 0 -5 9 -7 20 -4
17 4 30 43 15 43 -3 0 -5 -7 -5 -15z"/>
<path d="M1580 95 c0 -8 -7 -15 -15 -15 -8 0 -15 -3 -15 -7 0 -5 10 -8 23 -8
19 0 22 4 19 23 -5 25 -12 29 -12 7z"/>
<path d="M1883 92 c10 -10 14 -22 10 -27 -5 -4 -2 -5 5 -1 11 6 10 12 -4 27
-9 10 -19 19 -22 19 -3 0 2 -8 11 -18z"/>
<path d="M2111 94 c-1 -14 6 -24 19 -27 13 -3 20 0 20 9 0 7 -6 11 -14 8 -8
-3 -16 2 -19 13 -4 15 -5 15 -6 -3z"/>
<path d="M1030 89 c0 -9 9 -19 20 -22 13 -3 20 0 20 10 0 8 -5 11 -11 7 -6 -3
-15 0 -20 7 -7 11 -9 11 -9 -2z"/>
<path d="M1108 82 c20 -22 25 -21 16 2 -3 9 -12 16 -20 16 -11 0 -10 -4 4 -18z"/>
<path d="M1470 89 c0 -6 -7 -9 -15 -5 -8 3 -15 0 -15 -7 0 -7 9 -13 20 -13 13
0 20 7 20 18 0 10 -2 18 -5 18 -3 0 -5 -5 -5 -11z"/>
<path d="M1828 93 c7 -3 16 -2 19 1 4 3 -2 6 -13 5 -11 0 -14 -3 -6 -6z"/>
</g>
</svg>
